# xmcd
#
# Track frame offsets:
#	150
#	19022
#	35037
#	55005
#	73580
#	92287
#	110092
#	129230
#	147282
#	166167
#	187322
#	205650
#	223202
#
# Disc length: 3265 seconds
#
# Revision: 3
# Processed by: cddbd v1.5.2PL0 Copyright (c) Steve Scherf et al.
# Submitted via: EasyCDDAExtractor 15.3.0.1
#
DISCID=bb0cbf0d
DTITLE=Tonny Tun Tun - Con La Musica Por Dendro
DYEAR=2000
DGENRE=Latin
TTITLE0=Bailalo Anfincao
TTITLE1=Con La Musica Por Dentro
TTITLE2=Tu Me Provocas
TTITLE3=Me Gustas
TTITLE4=Entre Tus Brazos Yo Me Quede
TTITLE5=Como Un Tatuaje
TTITLE6=Te Lo Pido Por Favor
TTITLE7=Tienes Ganas De Bailar
TTITLE8=Me Gustas (Balada)
TTITLE9=Te Quiero Tanto
TTITLE10=La Novela
TTITLE11=Dejalo Ya
TTITLE12=Te Extraño Tanto Amor
EXTD=YEAR: 2000 ID3G:  86
EXTT0=
EXTT1=
EXTT2=
EXTT3=
EXTT4=
EXTT5=
EXTT6=
EXTT7=
EXTT8=
EXTT9=
EXTT10=
EXTT11=
EXTT12=
PLAYORDER=
